<svg xmlns="http://www.w3.org/2000/svg" width="24" height="24" viewBox="0 0 24 24">
  <g id="vuesax_bold_eye-slash" data-name="vuesax/bold/eye-slash" transform="translate(-172 -188)" opacity="0.5">
    <path id="Vector" d="M13.213,1.671a14.129,14.129,0,0,0-.92-1.29A1,1,0,0,0,10.8.291l-3,3a3.922,3.922,0,0,1,.06,2.21,4.021,4.021,0,0,1-2.9,2.9,3.922,3.922,0,0,1-2.21-.06L.293,10.8a1,1,0,0,0,.33,1.64,9.221,9.221,0,0,0,3.32.62,9.682,9.682,0,0,0,5.09-1.49,13.427,13.427,0,0,0,4.23-4.34A5.78,5.78,0,0,0,13.213,1.671Z" transform="translate(180.057 195.509)" fill="#292d32"/>
    <path id="Vector-2" data-name="Vector" d="M4.88.84.84,4.88A2.9,2.9,0,0,1,0,2.86,2.866,2.866,0,0,1,2.86,0,2.9,2.9,0,0,1,4.88.84Z" transform="translate(181.14 197.14)" fill="#292d32"/>
    <path id="Vector-3" data-name="Vector" d="M16.25,2.32,12.86,5.71A3.986,3.986,0,0,0,10,4.53a4.045,4.045,0,0,0-2.86,6.9L3.76,14.82H3.75a14.283,14.283,0,0,1-3-3.41,5.771,5.771,0,0,1,0-5.69A13.354,13.354,0,0,1,4.91,1.49,9.774,9.774,0,0,1,10,0,9.936,9.936,0,0,1,16.25,2.32Z" transform="translate(174 191.43)" fill="#292d32"/>
    <path id="Vector-4" data-name="Vector" d="M3.03.17A2.866,2.866,0,0,1,.17,3.03.5.5,0,0,1,0,3.01L3.01,0A.5.5,0,0,1,3.03.17Z" transform="translate(183.83 199.83)" fill="#292d32"/>
    <path id="Vector-5" data-name="Vector" d="M19.765.225a.773.773,0,0,0-1.09,0L.225,18.685a.773.773,0,0,0,0,1.09.791.791,0,0,0,.54.22.758.758,0,0,0,.54-.23L19.765,1.3A.743.743,0,0,0,19.765.225Z" transform="translate(174.005 190.005)" fill="#292d32"/>
    <path id="Vector-6" data-name="Vector" d="M0,0H24V24H0Z" transform="translate(196 212) rotate(180)" fill="none" opacity="0"/>
  </g>
</svg>
